# xmcd
# 
# Track frame offsets:
#     150
#     12990
#     28020
#     42390
#     55452
#     64472
#     78057
#     88005
#     99685
#     111490
#     122362
#     134080
#     145935
#     162155
# 
# Disc length: 2294
# 
# Revision: 0
# Processed by: cddbd v1.5.2PL0 Copyright (c) Steve Scherf et al.
# Submitted via: fre:ac v1.0.17
# 
DISCID=c608f40e
DTITLE=Cristina Branco - Murmúrios
DYEAR=1999
DGENRE=Fado
TTITLE0=Fado Perdição
TTITLE1=Abandono
TTITLE2=As Certezas do Meu Mais Brilhante Amor
TTITLE3=Saudade
TTITLE4=Mágoa
TTITLE5=Fim
TTITLE6=Canto Ainda Por Alguém
TTITLE7=Lírios
TTITLE8=Há Palavras Que Nos Beijam
TTITLE9=Quisera Lavar o Pensamento
TTITLE10=Murmúrios
TTITLE11=Fado das Sedes
TTITLE12=Arc' Antiga
TTITLE13=Pombas Brancas
EXTD=\nYEAR: 1999  ID3G:  80
EXTT0=
EXTT1=
EXTT2=
EXTT3=
EXTT4=
EXTT5=
EXTT6=
EXTT7=
EXTT8=
EXTT9=
EXTT10=
EXTT11=
EXTT12=
EXTT13=
PLAYORDER=
